<svg width="1074" height="1074" viewBox="0 0 1074 1074" fill="none" xmlns="http://www.w3.org/2000/svg">
<rect x="276.475" y="367.813" width="439.312" height="439.312" transform="rotate(-12 276.475 367.813)" stroke="#F0008C" stroke-width="0.6875"/>
<rect x="266.357" y="333.056" width="479.25" height="479.25" transform="rotate(-8 266.357 333.056)" stroke="#F0008C" stroke-width="0.75"/>
<rect x="259.93" y="296.147" width="519.188" height="519.188" transform="rotate(-4 259.93 296.147)" stroke="#F0008C" stroke-width="0.8125"/>
<rect x="257.437" y="257.437" width="559.125" height="559.125" stroke="#F0008C" stroke-width="0.875"/>
<rect x="259.093" y="217.304" width="599.062" height="599.062" transform="rotate(4 259.093 217.304)" stroke="#F0008C" stroke-width="0.9375"/>
<rect x="265.075" y="176.143" width="639" height="639" transform="rotate(8 265.075 176.143)" stroke="#F0008C"/>
<rect x="275.505" y="134.333" width="679" height="679" transform="rotate(12 275.505 134.333)" stroke="#F0008C"/>
<rect x="290.518" y="92.3347" width="719" height="719" transform="rotate(16 290.518 92.3347)" stroke="#F0008C"/>
<rect x="310.183" y="50.5898" width="759" height="759" transform="rotate(20 310.183 50.5898)" stroke="#F0008C"/>
<rect x="246.991" y="425.676" width="439.312" height="439.312" transform="rotate(-24 246.991 425.676)" stroke="#F0008C" stroke-width="0.6875"/>
<rect x="229.869" y="393.783" width="479.25" height="479.25" transform="rotate(-20 229.869 393.783)" stroke="#F0008C" stroke-width="0.75"/>
<rect x="215.908" y="359.016" width="519.187" height="519.187" transform="rotate(-16 215.908 359.016)" stroke="#F0008C" stroke-width="0.8125"/>
<rect x="205.422" y="321.671" width="559.125" height="559.125" transform="rotate(-12 205.422 321.671)" stroke="#F0008C" stroke-width="0.875"/>
<rect x="198.697" y="282.071" width="599.062" height="599.062" transform="rotate(-8 198.697 282.071)" stroke="#F0008C" stroke-width="0.9375"/>
<rect x="195.991" y="240.566" width="639" height="639" transform="rotate(-4 195.991 240.566)" stroke="#F0008C"/>
<rect x="197.5" y="197.5" width="679" height="679" stroke="#F0008C"/>
<rect x="203.453" y="153.298" width="719" height="719" transform="rotate(4 203.453 153.298)" stroke="#F0008C"/>
<rect x="214.009" y="108.377" width="759" height="759" transform="rotate(8 214.009 108.377)" stroke="#F0008C"/>
<rect x="230.183" y="488.405" width="439.312" height="439.312" transform="rotate(-36 230.183 488.405)" stroke="#F0008C" stroke-width="0.6875"/>
<rect x="206.804" y="460.768" width="479.25" height="479.25" transform="rotate(-32 206.804 460.768)" stroke="#F0008C" stroke-width="0.75"/>
<rect x="185.92" y="429.664" width="519.188" height="519.188" transform="rotate(-28 185.92 429.664)" stroke="#F0008C" stroke-width="0.8125"/>
<rect x="167.898" y="395.315" width="559.125" height="559.125" transform="rotate(-24 167.898 395.315)" stroke="#F0008C" stroke-width="0.875"/>
<rect x="153.087" y="357.978" width="599.062" height="599.062" transform="rotate(-20 153.087 357.978)" stroke="#F0008C" stroke-width="0.9375"/>
<rect x="141.81" y="317.943" width="639" height="639" transform="rotate(-16 141.81 317.943)" stroke="#F0008C"/>
<rect x="134.332" y="275.505" width="679" height="679" transform="rotate(-12 134.332 275.505)" stroke="#F0008C"/>
<rect x="130.966" y="231.031" width="719" height="719" transform="rotate(-8 130.966 231.031)" stroke="#F0008C"/>
<rect x="131.951" y="184.897" width="759" height="759" transform="rotate(-4 131.951 184.897)" stroke="#F0008C"/>
</svg>
